<svg xmlns="http://www.w3.org/2000/svg" viewBox="0 0 32 32" fill="none" role="img" aria-label="潮声 TideSignal">
  <defs>
    <linearGradient id="tide-bg" x1="7" y1="5" x2="25" y2="27" gradientUnits="userSpaceOnUse">
      <stop offset="0" stop-color="#0B2E5E" />
      <stop offset="0.52" stop-color="#2563EB" />
      <stop offset="1" stop-color="#60A5FA" />
    </linearGradient>
    <linearGradient id="tide-wave" x1="9" y1="13" x2="24" y2="24" gradientUnits="userSpaceOnUse">
      <stop offset="0" stop-color="#DBEAFE" />
      <stop offset="1" stop-color="#FFFFFF" />
    </linearGradient>
  </defs>
  <circle cx="16" cy="16" r="15" fill="url(#tide-bg)" />
  <path
    d="M7.5 19.8c2.8-4.6 8.6-7.4 14.2-7.2 1.9.1 3.6.6 5 1.4l-2.8 2.9c-1.3-.7-2.8-.8-4.3-.5-2.8.9-5 3.2-5.6 6.4H7.5Z"
    fill="#1E3A8A"
    fill-opacity="0.42"
  />
  <path
    d="M7.8 21.8h8.6c2.3 0 4.5-.7 6.1-2.1l1.8-1.7c-.9 2.2-3.6 3.8-6.8 4-3.6.3-7.1-.4-9.3-1.1"
    fill="url(#tide-wave)"
  />
  <path
    d="M10.8 19.6c.9-2.9 3.7-4.7 7-4.7 1.3 0 2.6.3 3.5.8l-2.9 2.9c-.9-.5-1.9-.8-3-.4-1.4.6-2.4 1.8-2.8 3.3"
    fill="#EFF6FF"
    fill-opacity="0.95"
  />
  <path
    d="M9.2 18.8c2.1-3.8 6.4-6 10.8-6"
    stroke="#FFFFFF"
    stroke-opacity="0.55"
    stroke-width="1.2"
    stroke-linecap="round"
  />
</svg>
